<svg width="512" height="512" viewBox="0 0 512 512" fill="none" xmlns="http://www.w3.org/2000/svg">
<path fill-rule="evenodd" clip-rule="evenodd" d="M462 0C435 0 50 0 50 0C-nan -nan -nan -nan -nan -nanC-nan -nan -nan -nan 50 0C22.3858 0 0 22.3858 0 50V462C0 489.614 22.3858 512 50 512H462C489.614 512 512 489.614 512 462V50C512 22.3858 489 0 462 0ZM245.244 356.303C246.197 354.007 247.595 351.921 249.356 350.166C251.11 348.41 253.194 347.017 255.487 346.066C257.78 345.115 260.239 344.626 262.721 344.626C265.204 344.626 267.662 345.115 269.955 346.066C272.248 347.017 274.332 348.41 276.086 350.166L285.437 359.517C296.067 370.147 310.484 376.119 325.517 376.119C340.549 376.119 354.966 370.147 365.596 359.517C376.226 348.887 382.198 334.47 382.198 319.438C382.198 304.405 376.226 289.988 365.596 279.358L327.658 241.451C317.441 231.227 303.704 225.294 289.257 224.864C274.81 224.433 260.745 229.539 249.938 239.137C248.078 240.791 245.91 242.062 243.558 242.878C241.206 243.694 238.717 244.038 236.231 243.892C233.746 243.746 231.315 243.112 229.075 242.026C226.835 240.94 224.831 239.423 223.177 237.563C221.523 235.702 220.252 233.534 219.436 231.182C218.62 228.83 218.275 226.341 218.421 223.856C218.567 221.371 219.202 218.939 220.288 216.699C221.374 214.459 222.89 212.455 224.751 210.801C242.772 194.79 266.234 186.275 290.329 187.001C314.425 187.726 337.331 197.638 354.356 214.705L392.326 252.659C410.046 270.378 420 294.411 420 319.469C420 344.528 410.046 368.56 392.326 386.279C374.607 403.998 350.575 413.952 325.517 413.952C300.458 413.952 276.426 403.998 258.707 386.279L249.356 376.928C247.595 375.173 246.197 373.088 245.244 370.792C244.291 368.495 243.8 366.033 243.8 363.547C243.8 361.061 244.291 358.599 245.244 356.303ZM199.548 99C174.503 99 150.481 108.931 132.749 126.616C132.742 126.623 132.738 126.633 132.738 126.643C132.738 126.653 132.734 126.663 132.727 126.67C115.034 144.411 105.102 168.446 105.11 193.502C105.119 218.563 115.073 242.597 132.785 260.326L170.755 298.28C187.788 315.323 210.69 325.211 234.775 325.922C258.859 326.633 282.305 318.113 300.313 302.105C302.174 300.452 303.691 298.448 304.777 296.208C305.863 293.968 306.497 291.536 306.643 289.051C306.789 286.566 306.444 284.076 305.629 281.724C304.813 279.372 303.541 277.204 301.888 275.344C300.234 273.483 298.23 271.967 295.99 270.881C293.75 269.795 291.318 269.16 288.833 269.014C286.348 268.868 283.858 269.213 281.506 270.029C279.155 270.845 276.986 272.116 275.126 273.77C264.326 283.38 250.262 288.5 235.811 288.081C221.361 287.663 207.616 281.738 197.391 271.518L159.437 233.548C148.807 222.919 142.835 208.502 142.835 193.469C142.835 178.436 148.807 164.019 159.437 153.389C170.066 142.759 184.483 136.788 199.516 136.788C214.549 136.788 228.966 142.759 239.596 153.389L248.947 162.74C252.495 166.289 257.309 168.283 262.327 168.283C267.346 168.283 272.16 166.289 275.708 162.74C279.257 159.191 281.251 154.378 281.251 149.359C281.251 144.34 279.257 139.527 275.708 135.978L266.357 126.627C248.624 108.936 224.597 99 199.548 99Z" fill="black"/>
<path d="M132.738 126.643C132.738 126.633 132.742 126.623 132.749 126.616C150.481 108.931 174.503 99 199.548 99C224.597 99 248.624 108.936 266.357 126.627L275.708 135.978C279.257 139.527 281.251 144.34 281.251 149.359C281.251 154.378 279.257 159.191 275.708 162.74C272.16 166.289 267.346 168.283 262.327 168.283C257.309 168.283 252.495 166.289 248.947 162.74L239.596 153.389C228.966 142.759 214.549 136.788 199.516 136.788C184.483 136.788 170.066 142.759 159.437 153.389C148.807 164.019 142.835 178.436 142.835 193.469C142.835 208.502 148.807 222.919 159.437 233.548L197.391 271.518C207.616 281.738 221.361 287.663 235.811 288.081C250.262 288.5 264.326 283.38 275.126 273.77C276.986 272.116 279.155 270.845 281.506 270.029C283.858 269.213 286.348 268.868 288.833 269.014C291.318 269.16 293.75 269.795 295.99 270.881C298.23 271.967 300.234 273.483 301.888 275.344C303.541 277.204 304.813 279.372 305.629 281.724C306.444 284.076 306.789 286.566 306.643 289.051C306.497 291.536 305.863 293.968 304.777 296.208C303.691 298.448 302.174 300.452 300.313 302.105C282.305 318.113 258.859 326.633 234.775 325.922C210.69 325.211 187.788 315.323 170.755 298.28L132.785 260.326C115.073 242.597 105.119 218.563 105.11 193.502C105.102 168.446 115.034 144.411 132.727 126.67C132.734 126.663 132.738 126.653 132.738 126.643Z" fill="white"/>
<path d="M249.356 350.166C247.595 351.921 246.197 354.007 245.244 356.303C244.291 358.599 243.8 361.061 243.8 363.547C243.8 366.033 244.291 368.495 245.244 370.792C246.197 373.088 247.595 375.173 249.356 376.928L258.707 386.279C276.426 403.998 300.458 413.952 325.517 413.952C350.575 413.952 374.607 403.998 392.326 386.279C410.046 368.56 420 344.528 420 319.469C420 294.411 410.046 270.378 392.326 252.659L354.356 214.705C337.331 197.638 314.425 187.726 290.329 187.001C266.234 186.275 242.772 194.79 224.751 210.801C222.89 212.455 221.374 214.459 220.288 216.699C219.202 218.939 218.567 221.371 218.421 223.856C218.275 226.341 218.62 228.83 219.436 231.182C220.252 233.534 221.523 235.702 223.177 237.563C224.831 239.423 226.835 240.94 229.075 242.026C231.315 243.112 233.746 243.746 236.231 243.892C238.717 244.038 241.206 243.694 243.558 242.878C245.91 242.062 248.078 240.791 249.938 239.137C260.745 229.539 274.81 224.433 289.257 224.864C303.704 225.294 317.441 231.227 327.658 241.451L365.596 279.358C376.226 289.988 382.198 304.405 382.198 319.438C382.198 334.47 376.226 348.887 365.596 359.517C354.966 370.147 340.549 376.119 325.517 376.119C310.484 376.119 296.067 370.147 285.437 359.517L276.086 350.166C274.332 348.41 272.248 347.017 269.955 346.066C267.662 345.115 265.204 344.626 262.721 344.626C260.239 344.626 257.78 345.115 255.487 346.066C253.194 347.017 251.11 348.41 249.356 350.166Z" fill="#0167FF"/>
</svg>
